<?xml version="1.0" encoding="utf-8"?>
<!-- Generator: Adobe Illustrator 22.0.0, SVG Export Plug-In . SVG Version: 6.00 Build 0)  -->
<svg version="1.1" id="图层_1" xmlns="http://www.w3.org/2000/svg" xmlns:xlink="http://www.w3.org/1999/xlink" x="0px" y="0px"
	 viewBox="0 0 65.7 87.9" style="enable-background:new 0 0 65.7 87.9;" xml:space="preserve">
<style type="text/css">
	.st0{fill:#B85215;stroke:#000000;stroke-miterlimit:10;}
	.st1{fill:#008D39;stroke:#000000;stroke-miterlimit:10;}
</style>
<g>
	<polygon class="st0" points="0.5,26.6 65.2,26.6 65.2,39.6 61.7,44.1 4.7,44.1 0.5,41 	"/>
	<polygon class="st0" points="5.7,44.5 13,87.4 51.3,87.4 59.7,44.5 	"/>
	<path class="st1" d="M23.8,26.6c0,0-11.3-4.6-14.3-11.5c0,0,13.4,4.7,17.2,11.5H23.8z"/>
	<path class="st1" d="M21.8,20.9c0,0-6.3-9.2-4.8-14.7c0,0,8.1-0.3,14.9,20.4h-5.2L21.8,20.9z"/>
	<path class="st1" d="M26.7,14c0,0-1.8-8.3,0-13.1c0,0,9,10.3,4.1,22.6L26.7,14z"/>
	<path class="st1" d="M32.8,17.3c0,0,3.6-12.5,10.5-16.3c0,0,1.4,16.2-10.5,25.3L31,22.8L32.8,17.3z"/>
	<path class="st1" d="M41.8,15.1c0,0,8.9-9.3,16.5-10.3c0,0-2.3,9.8-8.3,14.1c0,0,2.3-1,5.3,0c0,0-5.6,5.6-12,7.8h-5.1l10.6-7.2
		l-11.6,7.2h-4.9C32.2,26.6,40.3,19,41.8,15.1z"/>
</g>
</svg>
