<?xml version="1.0" encoding="utf-8"?>
<!-- Generator: Adobe Illustrator 22.0.0, SVG Export Plug-In . SVG Version: 6.00 Build 0)  -->
<svg version="1.1" id="图层_1" xmlns="http://www.w3.org/2000/svg" xmlns:xlink="http://www.w3.org/1999/xlink" x="0px" y="0px"
	 viewBox="0 0 61.4 86.3" style="enable-background:new 0 0 61.4 86.3;" xml:space="preserve">
<style type="text/css">
	.st0{fill:#B85215;stroke:#000000;stroke-miterlimit:10;}
	.st1{fill:#008D39;stroke:#000000;stroke-miterlimit:10;}
	.st2{fill:none;stroke:#000000;stroke-miterlimit:10;}
</style>
<g>
	<polygon class="st0" points="0.6,39.8 9.4,85.8 51.8,85.8 60.8,39.8 	"/>
	<path class="st1" d="M3.2,39.2c0,0-0.5-33.6,27.5-34.8c0,0,27.4-2.3,27.5,34.8H3.2z"/>
	<path class="st2" d="M25.6,5.4c0,0-9.5,13.3-7.6,33.8"/>
	<line class="st2" x1="30.7" y1="4.4" x2="31.3" y2="39.2"/>
	<path class="st2" d="M38.6,5.4c0,0,7.9,10.6,7.5,33.8"/>
	<line class="st2" x1="8.9" y1="26.9" x2="9.7" y2="29.2"/>
	<line class="st2" x1="22.7" y1="19.9" x2="22.7" y2="23.5"/>
	<line class="st2" x1="23.9" y1="30.7" x2="23.9" y2="33.4"/>
	<line class="st2" x1="36.3" y1="25" x2="37.8" y2="28"/>
	<line class="st2" x1="34.8" y1="10.2" x2="36.3" y2="12.2"/>
	<line class="st2" x1="48.9" y1="18.7" x2="49.9" y2="20.9"/>
	<line class="st2" x1="51.8" y1="32.7" x2="53.3" y2="34.4"/>
	<line class="st2" x1="1.6" y1="33.5" x2="3.5" y2="34.4"/>
	<line class="st2" x1="1.6" y1="26.5" x2="3.5" y2="28"/>
	<line class="st2" x1="3.5" y1="18" x2="7.5" y2="19.9"/>
	<line class="st2" x1="10.9" y1="7.8" x2="13.7" y2="11.2"/>
	<line class="st2" x1="17.1" y1="5.4" x2="17.7" y2="8.1"/>
	<path class="st2" d="M27.1,1.9c0.5,0.1,2.3,2.5,2.3,2.5"/>
	<line class="st2" x1="32.9" y1="0" x2="32.6" y2="4.4"/>
	<line class="st2" x1="44.2" y1="3.1" x2="41.2" y2="6.3"/>
	<line class="st2" x1="51.3" y1="9.5" x2="48.7" y2="11.2"/>
	<line class="st2" x1="55.2" y1="14.9" x2="51.9" y2="14.9"/>
	<line class="st2" x1="58.2" y1="23" x2="56.3" y2="24.3"/>
	<line class="st2" x1="60.1" y1="33.5" x2="58.2" y2="35.3"/>
</g>
</svg>
