<?xml version="1.0" encoding="utf-8"?>
<!-- Generator: Adobe Illustrator 22.0.0, SVG Export Plug-In . SVG Version: 6.00 Build 0)  -->
<svg version="1.1" id="图层_1" xmlns="http://www.w3.org/2000/svg" xmlns:xlink="http://www.w3.org/1999/xlink" x="0px" y="0px"
	 viewBox="0 0 39.4 96.2" style="enable-background:new 0 0 39.4 96.2;" xml:space="preserve">
<style type="text/css">
	.st0{fill:#B85215;stroke:#000000;stroke-miterlimit:10;}
	.st1{fill:none;stroke:#000000;stroke-miterlimit:10;}
	.st2{fill:#008D39;stroke:#000000;stroke-miterlimit:10;}
	.st3{fill:#B64B97;stroke:#000000;stroke-miterlimit:10;}
</style>
<g>
	<polygon class="st0" points="7.4,64.5 14.6,95.7 31.6,95.7 38.7,64.5 	"/>
	<path class="st1" d="M21.4,64.5c0,0-1.4-22.8-4.8-24.2l4.8-1c0,0,5,18.7,2.9,25.2H21.4z"/>
	<path class="st2" d="M20.9,58.1c0,0-7.1-9-11.5-9.1c0,0,4,13.3,11.9,13.5L20.9,58.1z"/>
	<path class="st2" d="M24.6,55.7c0,0,5.7-11.8,11.7-13.5c0,0-1.6,15-11.5,19.4L24.6,55.7z"/>
	<path class="st3" d="M16.1,40.2c0,0-19.8-1.6-14.7-16.8c0,0,5.4-10.3,1.3-15.5l6.8,2.3L10,1.4c0,0,7.5,10.3,13.8,10
		c0,0,17.1,7.9,3.3,22.1C27,33.5,23,40.3,16.1,40.2z"/>
	<path class="st1" d="M21.7,19c0,0,2.4,1.4,2.2,6.8"/>
	<path class="st1" d="M23.6,15.9c0,0,7.8,3,3.3,11.5"/>
</g>
</svg>
