<?xml version="1.0" encoding="utf-8"?>
<!-- Generator: Adobe Illustrator 22.0.0, SVG Export Plug-In . SVG Version: 6.00 Build 0)  -->
<svg version="1.1" id="图层_1" xmlns="http://www.w3.org/2000/svg" xmlns:xlink="http://www.w3.org/1999/xlink" x="0px" y="0px"
	 viewBox="0 0 74.4 142.1" style="enable-background:new 0 0 74.4 142.1;" xml:space="preserve">
<style type="text/css">
	.st0{fill:#B85215;stroke:#000000;stroke-miterlimit:10;}
	.st1{fill:none;stroke:#000000;stroke-miterlimit:10;}
	.st2{fill:#008D39;stroke:#000000;stroke-miterlimit:10;}
</style>
<g>
	<polygon class="st0" points="0.6,73.1 8.3,133.1 65.3,133.1 73.8,73.1 	"/>
	<path class="st0" d="M11.3,133.1c0,0,0.3,9,7,8.5l39.8,0c0,0,5.8-3,4.8-8.5"/>
	<path class="st1" d="M37.1,73.1c0,0,9.9-10.2,0-39.2"/>
	<path class="st2" d="M21.4,39.3c0,0-3.4,14.2,11.5,10.5c0,0,10-3.7,1.6-23.3"/>
	<path class="st2" d="M22.4,40.3c0,0-14.8,3.7-11.5-10.5c0,0,3.5-9.6,24.5-2.4"/>
	<path class="st2" d="M53.9,31.2c0,0,14.5-4.6,2.9-14.5c0,0-8.9-6.1-21.7,10.7"/>
	<path class="st2" d="M53.9,30.2c0,0,11.7,9.9-2.9,14.5c0,0-10.6,2.1-15.9-18.4"/>
	<path class="st2" d="M27.9,9.3c0,0-12.9-8.4-14.1,6.2c0,0,0.4,10.3,22.5,10.3"/>
	<path class="st2" d="M26.9,9.3c0,0,1.2-14.5,14.1-6.2c0,0,8.4,6.8-5.7,22.6"/>
</g>
</svg>
