<?xml version="1.0" encoding="utf-8"?>
<!-- Generator: Adobe Illustrator 22.0.0, SVG Export Plug-In . SVG Version: 6.00 Build 0)  -->
<svg version="1.1" id="图层_1" xmlns="http://www.w3.org/2000/svg" xmlns:xlink="http://www.w3.org/1999/xlink" x="0px" y="0px"
	 viewBox="0 0 83.8 99" style="enable-background:new 0 0 83.8 99;" xml:space="preserve">
<style type="text/css">
	.st0{fill:#B85215;stroke:#000000;stroke-miterlimit:10;}
	.st1{fill:#008D39;stroke:#000000;stroke-miterlimit:10;}
	.st2{fill:none;stroke:#000000;stroke-miterlimit:10;}
</style>
<g>
	<polygon class="st0" points="16.6,54.5 74.4,54.5 61.9,98.5 28.6,98.5 	"/>
	<path class="st1" d="M34.3,53.5c0,0-9.2-56.8,12.7-52.8c0,0,25-4,10.5,52.8H34.3z"/>
	<path class="st2" d="M43.6,1.7c0,0-12.3,29.5-1.8,51"/>
	<line class="st2" x1="46.9" y1="0.7" x2="47.2" y2="53.5"/>
	<path class="st2" d="M53.7,2.2c0,0,5.5,36.6-1.8,50.5"/>
	<path class="st1" d="M32.4,38.9c0,0-34.1,6.7-31.8-29.3c0,0,9.2-17,17.5-1.5c0,0,7,26.3,14.3,20.8"/>
	<path class="st2" d="M9.4,3.5c0,0,3.7,28.3,22.9,29.8"/>
	<path class="st2" d="M1.3,8.4c0,0,10,28.6,29.7,28.6"/>
	<path class="st1" d="M60.5,39.4c0,0,7-5.8,9.3-16.6c0,0,8.2-7.5,13,0c0,0,5.9,24.7-23.6,23.7L60.5,39.4z"/>
	<path class="st2" d="M79.1,21.4c0,0-3.1,21.7-19.3,21.5"/>
</g>
</svg>
