<?xml version="1.0" encoding="utf-8"?>
<!-- Generator: Adobe Illustrator 22.0.0, SVG Export Plug-In . SVG Version: 6.00 Build 0)  -->
<svg version="1.1" id="图层_1" xmlns="http://www.w3.org/2000/svg" xmlns:xlink="http://www.w3.org/1999/xlink" x="0px" y="0px"
	 viewBox="0 0 42.3 89.5" style="enable-background:new 0 0 42.3 89.5;" xml:space="preserve">
<style type="text/css">
	.st0{fill:#B85215;stroke:#000000;stroke-miterlimit:10;}
	.st1{fill:none;stroke:#000000;stroke-miterlimit:10;}
	.st2{fill:#EFE800;stroke:#000000;stroke-miterlimit:10;}
</style>
<g>
	<polygon class="st0" points="0.5,44.5 3,79 39.8,79 41.8,44.5 	"/>
	<rect x="4.5" y="79" class="st0" width="33" height="10"/>
	<line class="st1" x1="8.3" y1="44.5" x2="8.3" y2="11.9"/>
	<line class="st1" x1="8.3" y1="42.7" x2="3.7" y2="38.5"/>
	<line class="st1" x1="8.3" y1="41.7" x2="12.4" y2="40"/>
	<circle class="st2" cx="5.9" cy="9.9" r="2.3"/>
	<circle class="st2" cx="10.4" cy="7.2" r="2.3"/>
	<circle class="st2" cx="10.8" cy="12.2" r="2.3"/>
	<circle class="st2" cx="24.7" cy="27.2" r="2.3"/>
	<circle class="st2" cx="24.7" cy="22.1" r="2.3"/>
	<circle class="st2" cx="37.8" cy="2.8" r="2.3"/>
	<circle class="st2" cx="37.8" cy="7.5" r="2.3"/>
	<line class="st1" x1="25" y1="29.5" x2="25" y2="44.5"/>
	<line class="st1" x1="25" y1="41.7" x2="28.1" y2="38.5"/>
	<line class="st1" x1="37.8" y1="9.5" x2="37.8" y2="44.5"/>
	<line class="st1" x1="37.8" y1="41.4" x2="35.1" y2="38.5"/>
</g>
</svg>
