<?xml version="1.0" encoding="utf-8"?>
<!-- Generator: Adobe Illustrator 22.0.0, SVG Export Plug-In . SVG Version: 6.00 Build 0)  -->
<svg version="1.1" id="图层_1" xmlns="http://www.w3.org/2000/svg" xmlns:xlink="http://www.w3.org/1999/xlink" x="0px" y="0px"
	 viewBox="0 0 50.2 93.4" style="enable-background:new 0 0 50.2 93.4;" xml:space="preserve">
<style type="text/css">
	.st0{fill:#B85215;stroke:#000000;stroke-miterlimit:10;}
	.st1{fill:#FFFFFF;stroke:#000000;stroke-miterlimit:10;}
	.st2{fill:#EFE800;stroke:#000000;stroke-miterlimit:10;}
	.st3{fill:none;stroke:#000000;stroke-miterlimit:10;}
	.st4{fill:#008D39;stroke:#000000;stroke-miterlimit:10;}
</style>
<g>
	<path class="st0" d="M5.2,62.7l2.6,24.2c0,0,0.6,5.6,6.5,6h22.3c0,0,5.9-0.9,6.8-6.1l3.1-24.1"/>
	<path class="st0" d="M1.9,50h47.5c0,0,2.6,12.6-6.9,14.6H9.4C9.4,64.6-3.6,61,1.9,50z"/>
	<path class="st1" d="M17.4,3.3c0,0,4.5-6,8.3,0c0,0,5.8-6.3,8.3,0S25.6,13,25.6,13S15.4,10.5,17.4,3.3z"/>
	<path class="st1" d="M38.1,7.8c0,0,6.3,4.1,0.5,8.2c0,0,6.6,5.3,0.5,8.2s-10.3-7.6-10.3-7.6S30.7,6.3,38.1,7.8z"/>
	<path class="st1" d="M33.9,29.6c0,0-4.8,5.7-8.2-0.5c0,0-6.1,5.9-8.2-0.5s8.8-9.2,8.8-9.2S36.3,22.5,33.9,29.6z"/>
	<path class="st1" d="M13.1,24.6c0,0-6.2-4.2-0.4-8.2c0,0-6.5-5.5-0.4-8.2s10.1,7.8,10.1,7.8S20.5,26.3,13.1,24.6z"/>
	<circle class="st2" cx="25.7" cy="16.2" r="3.2"/>
	<line class="st3" x1="25.7" y1="6.8" x2="25.7" y2="13"/>
	<line class="st3" x1="28.9" y1="16.2" x2="34.2" y2="16.2"/>
	<line class="st3" x1="25.7" y1="19.4" x2="25.7" y2="24.8"/>
	<line class="st3" x1="22.5" y1="16.2" x2="17.1" y2="16.2"/>
	<line class="st3" x1="25.7" y1="28.8" x2="25.7" y2="50"/>
	<path class="st4" d="M25,42.5c0,0-11.8-13.6-21.4-10.5C3.5,32,10.1,41.5,25,42.5z"/>
</g>
</svg>
