<?xml version="1.0" encoding="utf-8"?>
<!-- Generator: Adobe Illustrator 22.0.0, SVG Export Plug-In . SVG Version: 6.00 Build 0)  -->
<svg version="1.1" id="图层_1" xmlns="http://www.w3.org/2000/svg" xmlns:xlink="http://www.w3.org/1999/xlink" x="0px" y="0px"
	 viewBox="0 0 77 105.8" style="enable-background:new 0 0 77 105.8;" xml:space="preserve">
<style type="text/css">
	.st0{fill:#B85215;stroke:#000000;stroke-miterlimit:10;}
	.st1{fill:none;stroke:#000000;stroke-miterlimit:10;}
</style>
<g>
	<polygon class="st0" points="7.2,62.3 64.9,62.3 53.5,105.3 18.7,105.3 	"/>
	<line class="st0" x1="10.2" y1="70.3" x2="61.7" y2="70.3"/>
	<line class="st0" x1="10.2" y1="72.5" x2="61.7" y2="72.5"/>
	<line class="st0" x1="17.9" y1="102.1" x2="54.4" y2="102.1"/>
	<path class="st1" d="M37.4,62.3c0,0-16.2-41.7-8.5-57.7"/>
	<path class="st1" d="M28.9,37.6c0,0-17.5,4.3-21.7-6.8"/>
	<path class="st1" d="M15.1,37.3c0,0,1.9-6.8-2.8-10.4"/>
	<path class="st1" d="M16.8,38.4c0,0-10.1,9.2-16.4-2.5"/>
	<path class="st1" d="M26.8,18.6c0,0-13.6,1.6-12.1-16.9"/>
	<path class="st1" d="M28.9,28c0,0,27.7,1.7,36-26.3"/>
	<path class="st1" d="M48.4,22c0,0-11-2.7-6.2-21.8"/>
	<path class="st1" d="M57,16.2c0,0,17.3,4.6,19.5-11.5"/>
	<path class="st1" d="M33.7,51.7c0,0,13.2-0.5,23.3-16.4c0,0,9.5,8.8,18.5-4.5"/>
	<path class="st1" d="M48.4,44c0,0-9.9-0.5-3.7-14.5"/>
	<path class="st1" d="M57,35.3c0,0,7.7-4.2,3.7-9.2"/>
	<path class="st1" d="M51.9,41.9c0,0,4.8,9.9,11.5,7.3"/>
</g>
</svg>
